<svg width="1440" height="1727" viewBox="0 0 1440 1727" fill="none" xmlns="http://www.w3.org/2000/svg">
<path d="M1274.26 1213.93C1270.78 1130.72 1073.31 938.797 916.488 828.104C735.761 700.552 652.671 711.707 519.916 595.735C398.764 489.923 406.076 426.539 316.253 351.739C233.704 282.998 90.8264 222.683 -173.971 239.319" stroke="url(#paint0_linear_45_265)" stroke-opacity="0.1" stroke-width="2" stroke-miterlimit="10"/>
<path d="M-165.523 260.303C95.9563 244.27 239.253 303.28 323.398 371.315C385.751 421.779 403.144 467.475 447.365 525.012C469.35 554.074 497.816 584.18 530.208 612.624C636.301 705.836 710.152 719.415 831.149 788.865C862 806.525 893.265 826.413 924.298 848.118C1082.04 958.162 1278.65 1142.64 1285.97 1225.64" stroke="url(#paint1_linear_45_265)" stroke-opacity="0.1" stroke-width="2" stroke-miterlimit="10"/>
<path d="M-157.04 281.24C101.117 265.822 244.755 323.485 330.312 390.701C393.203 440.113 412.393 485.501 457 541.989C479.683 571.067 508.156 600.932 540.249 629.305C644.695 721.636 717.691 738.478 838.929 808.88C869.747 826.742 900.897 846.542 931.88 867.963C1090.51 977.606 1286.28 1154.39 1297.46 1237.19" stroke="url(#paint2_linear_45_265)" stroke-opacity="0.1" stroke-width="2" stroke-miterlimit="10"/>
<path d="M-148.577 302.072C106.198 287.268 250.25 343.653 337.331 410.09C400.805 458.511 421.695 503.495 466.761 559.002C490.09 588.05 518.546 617.663 550.315 645.951C653.216 737.476 725.13 757.405 846.735 828.864C877.54 846.906 908.614 866.632 939.573 887.798C1099.09 996.895 1294.01 1166.12 1309.03 1248.73" stroke="url(#paint3_linear_45_265)" stroke-opacity="0.1" stroke-width="2" stroke-miterlimit="10"/>
<path d="M-140.132 322.933C111.329 308.708 255.686 363.77 344.369 429.485C408.345 476.875 431.064 521.549 476.574 576.024C500.565 605.064 529.057 634.474 560.556 662.715C661.913 753.439 732.819 776.524 854.844 849.068C885.568 867.282 916.496 886.904 947.353 907.759C1107.79 1016.33 1301.84 1178.01 1320.74 1260.45" stroke="url(#paint4_linear_45_265)" stroke-opacity="0.1" stroke-width="2" stroke-miterlimit="10"/>
<path d="M-131.78 343.606C116.438 330.039 261.492 382.708 351.413 448.787C415.607 495.921 440.457 539.446 486.336 592.951C510.982 621.957 539.508 651.166 570.726 679.36C670.539 769.29 740.384 795.497 862.648 869.017C893.322 887.389 924.149 906.926 954.94 927.506C1116.31 1035.52 1309.49 1189.71 1332.24 1271.97" stroke="url(#paint5_linear_45_265)" stroke-opacity="0.1" stroke-width="2" stroke-miterlimit="10"/>
<path d="M-123.2 364.38C121.566 351.337 266.541 403.851 358.443 467.954C423.313 513.378 449.881 557.396 496.117 609.857C521.388 638.805 549.952 667.82 580.889 695.968C679.158 785.108 748.024 814.483 870.553 889.001C901.174 907.547 931.903 927.011 962.621 947.314C1124.91 1054.82 1317.24 1201.44 1343.83 1283.55" stroke="url(#paint6_linear_45_265)" stroke-opacity="0.1" stroke-width="2" stroke-miterlimit="10"/>
<path d="M-114.746 385.066C126.621 372.572 271.959 423.781 365.467 487.272C430.801 531.585 459.384 575.278 505.906 626.739C531.782 655.605 560.398 684.432 591.066 712.53C687.763 800.873 755.642 833.44 878.47 908.939C907.046 926.521 937.489 945.545 970.318 967.064C1133.56 1074.05 1324.98 1213.2 1355.42 1295.11" stroke="url(#paint7_linear_45_265)" stroke-opacity="0.1" stroke-width="2" stroke-miterlimit="10"/>
<path d="M-106.295 405.62C131.798 393.778 277.341 443.715 372.485 506.357C438.282 549.689 468.906 593.079 515.746 643.541C542.229 672.323 570.91 700.993 601.31 729.074C696.464 816.635 763.316 852.328 886.454 928.893C915.122 946.714 945.483 965.714 978.106 986.856C1142.07 1093.17 1332.72 1224.9 1367.02 1306.63" stroke="url(#paint8_linear_45_265)" stroke-opacity="0.1" stroke-width="2" stroke-miterlimit="10"/>
<path d="M-97.812 426.145C136.93 414.901 282.731 463.59 379.517 525.485C445.748 567.831 478.553 610.962 525.451 660.255C552.505 688.922 581.247 717.436 611.37 745.496C705.006 832.295 770.85 871.157 894.294 948.691C922.926 966.66 953.312 985.684 985.728 1006.46C1150.81 1112.33 1340.48 1236.52 1378.63 1318.08" stroke="url(#paint9_linear_45_265)" stroke-opacity="0.1" stroke-width="2" stroke-miterlimit="10"/>
<path d="M-89.3599 446.566C142.033 435.908 288.111 483.396 386.478 544.436C453.14 585.81 488.029 628.59 535.179 676.91C562.804 705.443 591.628 733.816 621.484 761.861C713.551 847.869 778.391 889.895 902.136 968.542C930.855 986.775 961.168 1005.74 993.348 1026.15C1159.37 1131.45 1348.13 1248.18 1390.18 1329.62" stroke="url(#paint10_linear_45_265)" stroke-opacity="0.1" stroke-width="2" stroke-miterlimit="10"/>
<path d="M-80.9076 466.903C147.158 456.862 293.543 503.157 393.566 563.399C460.681 603.834 497.686 646.259 544.986 693.536C572.178 720.708 600.044 748.432 631.699 778.232C722.228 863.46 786.057 908.679 910.096 988.356C938.853 1006.81 969.118 1025.73 1001.14 1045.83C1168.1 1150.57 1355.98 1259.85 1401.86 1341.13" stroke="url(#paint11_linear_45_265)" stroke-opacity="0.1" stroke-width="2" stroke-miterlimit="10"/>
<path d="M-72.4525 487.142C152.276 477.753 298.79 522.719 400.575 582.23C468.147 621.715 507.351 663.822 554.769 710.064C582.75 737.354 610.742 764.958 641.866 794.493C730.843 878.995 793.652 927.338 918.008 1008.08C946.801 1026.76 977.043 1045.67 1008.78 1065.35C1176.66 1169.49 1363.68 1271.39 1413.4 1352.53" stroke="url(#paint12_linear_45_265)" stroke-opacity="0.1" stroke-width="2" stroke-miterlimit="10"/>
<path d="M-64.0505 507.251C157.387 498.45 304.313 542.402 407.582 600.973C475.602 639.547 517.016 681.29 564.547 726.524C593.349 753.928 621.437 781.41 651.925 810.62C739.395 894.349 801.138 945.886 925.914 1027.78C954.773 1046.69 984.943 1065.54 1016.47 1084.89C1185.3 1188.44 1371.43 1282.92 1425 1363.92" stroke="url(#paint13_linear_45_265)" stroke-opacity="0.1" stroke-width="2" stroke-miterlimit="10"/>
<path d="M-55.5157 527.281C162.515 519.043 309.652 561.828 414.617 619.575C483.114 657.248 526.716 698.601 574.305 742.805C603.93 770.316 632.161 797.738 662.195 826.743C748.073 909.688 808.865 964.456 933.831 1047.34C963.997 1067.19 994.159 1086.19 1024.2 1104.28C1193.92 1207.27 1379.25 1294.45 1436.61 1375.24" stroke="url(#paint14_linear_45_265)" stroke-opacity="0.1" stroke-width="2" stroke-miterlimit="10"/>
<path d="M-47.0629 547.142C167.637 539.521 315.2 581.241 421.547 637.987C490.516 674.772 536.338 715.735 584.107 759.028C614.56 786.637 642.882 813.965 672.356 842.706C756.719 924.931 816.482 982.898 941.692 1066.82C971.788 1086.84 1001.9 1105.82 1031.83 1123.64C1202.55 1225.99 1386.92 1305.79 1448.24 1386.49" stroke="url(#paint15_linear_45_265)" stroke-opacity="0.1" stroke-width="2" stroke-miterlimit="10"/>
<path d="M-38.6079 566.847C172.738 559.812 320.729 600.584 428.656 656.378C498.041 692.268 546.12 732.815 593.862 775.068C625.145 802.766 653.549 830.04 682.494 858.527C765.291 940.005 824.08 1001.21 949.66 1086.28C979.688 1106.46 1009.75 1125.41 1039.58 1142.96C1211.14 1244.7 1394.67 1317.14 1459.83 1397.77" stroke="url(#paint16_linear_45_265)" stroke-opacity="0.1" stroke-width="2" stroke-miterlimit="10"/>
<path d="M-30.1249 582.641C177.819 576.244 326.022 615.942 435.622 671.088C505.558 706.264 555.801 746.443 603.59 787.879C635.816 815.809 664.231 843.063 692.647 871.401C773.926 952.389 831.694 1017.05 957.604 1103.51C987.565 1123.92 1017.59 1142.91 1047.31 1160.24C1219.79 1261.69 1402.46 1327 1471.49 1407.79" stroke="url(#paint17_linear_45_265)" stroke-opacity="0.1" stroke-width="2" stroke-miterlimit="10"/>
<path d="M-21.6691 598.151C182.799 592.195 331.462 631.142 442.604 685.56C513.033 720.008 565.444 759.799 613.323 800.492C646.304 828.567 674.94 855.931 702.781 884.074C782.53 964.633 839.319 1032.76 965.544 1120.6C995.438 1141.23 1025.42 1160.26 1055.04 1177.38C1228.44 1278.53 1410.35 1336.81 1483.13 1417.65" stroke="url(#paint18_linear_45_265)" stroke-opacity="0.1" stroke-width="2" stroke-miterlimit="10"/>
<path d="M-13.2112 613.512C188 608.208 336.934 646.183 449.586 699.745C520.562 733.484 575.122 772.843 623.095 812.766C656.934 840.938 685.612 868.411 712.948 896.441C791.149 976.533 846.96 1048.18 973.513 1137.49C1003.34 1158.36 1033.3 1177.44 1062.79 1194.33C1237.11 1295.13 1418.04 1346.09 1494.8 1427.24" stroke="url(#paint19_linear_45_265)" stroke-opacity="0.1" stroke-width="2" stroke-miterlimit="10"/>
<path d="M-4.72454 628.86C193.106 624.104 342.395 661.235 456.486 713.847C527.977 746.871 584.664 785.75 632.723 824.931C667.417 853.211 696.194 880.808 722.986 908.638C799.687 988.308 854.52 1063.53 981.385 1154.26C1011.15 1175.36 1041.09 1194.48 1070.48 1211.17C1245.59 1311.42 1425.73 1355.33 1506.42 1436.68" stroke="url(#paint20_linear_45_265)" stroke-opacity="0.1" stroke-width="2" stroke-miterlimit="10"/>
<path d="M3.70833 644.168C319.296 637.304 517.038 736.91 642.583 837.178C779.633 946.631 817.795 1046.72 989.46 1171.16C1190.84 1317.12 1419.31 1350.74 1518.13 1446.06" stroke="url(#paint21_linear_45_265)" stroke-opacity="0.1" stroke-width="2" stroke-miterlimit="10"/>
<defs>
<linearGradient id="paint0_linear_45_265" x1="595.054" y1="549.006" x2="482.504" y2="706.993" gradientUnits="userSpaceOnUse">
<stop stop-color="#155ADA"/>
<stop offset="1" stop-color="#0B743B"/>
</linearGradient>
<linearGradient id="paint1_linear_45_265" x1="603.905" y1="570.227" x2="491.345" y2="728.235" gradientUnits="userSpaceOnUse">
<stop stop-color="#155ADA"/>
<stop offset="1" stop-color="#0B743B"/>
</linearGradient>
<linearGradient id="paint2_linear_45_265" x1="612.673" y1="591.288" x2="500.078" y2="749.347" gradientUnits="userSpaceOnUse">
<stop stop-color="#155ADA"/>
<stop offset="1" stop-color="#0B743B"/>
</linearGradient>
<linearGradient id="paint3_linear_45_265" x1="621.485" y1="612.235" x2="508.821" y2="770.387" gradientUnits="userSpaceOnUse">
<stop stop-color="#155ADA"/>
<stop offset="1" stop-color="#0B743B"/>
</linearGradient>
<linearGradient id="paint4_linear_45_265" x1="630.387" y1="633.159" x2="517.577" y2="791.506" gradientUnits="userSpaceOnUse">
<stop stop-color="#155ADA"/>
<stop offset="1" stop-color="#0B743B"/>
</linearGradient>
<linearGradient id="paint5_linear_45_265" x1="639.162" y1="653.763" x2="526.131" y2="812.394" gradientUnits="userSpaceOnUse">
<stop stop-color="#155ADA"/>
<stop offset="1" stop-color="#0B743B"/>
</linearGradient>
<linearGradient id="paint6_linear_45_265" x1="648.114" y1="674.379" x2="534.824" y2="833.342" gradientUnits="userSpaceOnUse">
<stop stop-color="#155ADA"/>
<stop offset="1" stop-color="#0B743B"/>
</linearGradient>
<linearGradient id="paint7_linear_45_265" x1="657.008" y1="694.937" x2="543.451" y2="854.243" gradientUnits="userSpaceOnUse">
<stop stop-color="#155ADA"/>
<stop offset="1" stop-color="#0B743B"/>
</linearGradient>
<linearGradient id="paint8_linear_45_265" x1="665.946" y1="715.211" x2="552.002" y2="875.011" gradientUnits="userSpaceOnUse">
<stop stop-color="#155ADA"/>
<stop offset="1" stop-color="#0B743B"/>
</linearGradient>
<linearGradient id="paint9_linear_45_265" x1="674.912" y1="735.421" x2="560.56" y2="895.742" gradientUnits="userSpaceOnUse">
<stop stop-color="#155ADA"/>
<stop offset="1" stop-color="#0B743B"/>
</linearGradient>
<linearGradient id="paint10_linear_45_265" x1="683.886" y1="755.396" x2="569.023" y2="916.366" gradientUnits="userSpaceOnUse">
<stop stop-color="#155ADA"/>
<stop offset="1" stop-color="#0B743B"/>
</linearGradient>
<linearGradient id="paint11_linear_45_265" x1="692.943" y1="775.219" x2="577.49" y2="936.938" gradientUnits="userSpaceOnUse">
<stop stop-color="#155ADA"/>
<stop offset="1" stop-color="#0B743B"/>
</linearGradient>
<linearGradient id="paint12_linear_45_265" x1="701.973" y1="794.787" x2="585.839" y2="957.368" gradientUnits="userSpaceOnUse">
<stop stop-color="#155ADA"/>
<stop offset="1" stop-color="#0B743B"/>
</linearGradient>
<linearGradient id="paint13_linear_45_265" x1="711.039" y1="814.135" x2="594.129" y2="977.698" gradientUnits="userSpaceOnUse">
<stop stop-color="#155ADA"/>
<stop offset="1" stop-color="#0B743B"/>
</linearGradient>
<linearGradient id="paint14_linear_45_265" x1="720.222" y1="833.201" x2="602.408" y2="997.903" gradientUnits="userSpaceOnUse">
<stop stop-color="#155ADA"/>
<stop offset="1" stop-color="#0B743B"/>
</linearGradient>
<linearGradient id="paint15_linear_45_265" x1="729.428" y1="851.95" x2="610.571" y2="1017.97" gradientUnits="userSpaceOnUse">
<stop stop-color="#155ADA"/>
<stop offset="1" stop-color="#0B743B"/>
</linearGradient>
<linearGradient id="paint16_linear_45_265" x1="738.682" y1="870.335" x2="618.628" y2="1037.86" gradientUnits="userSpaceOnUse">
<stop stop-color="#155ADA"/>
<stop offset="1" stop-color="#0B743B"/>
</linearGradient>
<linearGradient id="paint17_linear_45_265" x1="749.4" y1="879.948" x2="624.375" y2="1053.67" gradientUnits="userSpaceOnUse">
<stop stop-color="#155ADA"/>
<stop offset="1" stop-color="#0B743B"/>
</linearGradient>
<linearGradient id="paint18_linear_45_265" x1="760.229" y1="888.726" x2="629.849" y2="1069.1" gradientUnits="userSpaceOnUse">
<stop stop-color="#155ADA"/>
<stop offset="1" stop-color="#0B743B"/>
</linearGradient>
<linearGradient id="paint19_linear_45_265" x1="771.15" y1="896.904" x2="635.119" y2="1084.25" gradientUnits="userSpaceOnUse">
<stop stop-color="#155ADA"/>
<stop offset="1" stop-color="#0B743B"/>
</linearGradient>
<linearGradient id="paint20_linear_45_265" x1="782.1" y1="904.758" x2="640.251" y2="1099.25" gradientUnits="userSpaceOnUse">
<stop stop-color="#155ADA"/>
<stop offset="1" stop-color="#0B743B"/>
</linearGradient>
<linearGradient id="paint21_linear_45_265" x1="793.119" y1="912.312" x2="645.269" y2="1114.14" gradientUnits="userSpaceOnUse">
<stop stop-color="#155ADA"/>
<stop offset="1" stop-color="#0B743B"/>
</linearGradient>
</defs>
</svg>
