<svg width="176" height="176" viewBox="0 0 176 176" fill="none" xmlns="http://www.w3.org/2000/svg">
<path d="M8.93333 7.59961V4.26628C8.93333 4.08947 8.86309 3.9199 8.73807 3.79487C8.61305 3.66985 8.44348 3.59961 8.26666 3.59961C8.08985 3.59961 7.92028 3.66985 7.79526 3.79487C7.67024 3.9199 7.6 4.08947 7.6 4.26628V7.59961H4.26667C4.08985 7.59961 3.92028 7.66985 3.79526 7.79487C3.67024 7.9199 3.6 8.08946 3.6 8.26628C3.6 8.44309 3.67024 8.61266 3.79526 8.73768C3.92028 8.8627 4.08985 8.93294 4.26667 8.93294H7.6V12.2663C7.6 12.4431 7.67024 12.6127 7.79526 12.7377C7.92028 12.8627 8.08985 12.9329 8.26666 12.9329C8.44348 12.9329 8.61305 12.8627 8.73807 12.7377C8.86309 12.6127 8.93333 12.4431 8.93333 12.2663V8.93294H12.2667C12.4435 8.93294 12.613 8.8627 12.7381 8.73768C12.8631 8.61266 12.9333 8.44309 12.9333 8.26628C12.9333 8.08946 12.8631 7.9199 12.7381 7.79487C12.613 7.66985 12.4435 7.59961 12.2667 7.59961H8.93333Z" fill="#E2E8F0"/>
<path d="M40.9333 7.59961V4.26628C40.9333 4.08947 40.8631 3.9199 40.7381 3.79487C40.613 3.66985 40.4435 3.59961 40.2667 3.59961C40.0899 3.59961 39.9203 3.66985 39.7953 3.79487C39.6702 3.9199 39.6 4.08947 39.6 4.26628V7.59961H36.2667C36.0899 7.59961 35.9203 7.66985 35.7953 7.79487C35.6702 7.9199 35.6 8.08946 35.6 8.26628C35.6 8.44309 35.6702 8.61266 35.7953 8.73768C35.9203 8.8627 36.0899 8.93294 36.2667 8.93294H39.6V12.2663C39.6 12.4431 39.6702 12.6127 39.7953 12.7377C39.9203 12.8627 40.0899 12.9329 40.2667 12.9329C40.4435 12.9329 40.613 12.8627 40.7381 12.7377C40.8631 12.6127 40.9333 12.4431 40.9333 12.2663V8.93294H44.2667C44.4435 8.93294 44.613 8.8627 44.7381 8.73768C44.8631 8.61266 44.9333 8.44309 44.9333 8.26628C44.9333 8.08946 44.8631 7.9199 44.7381 7.79487C44.613 7.66985 44.4435 7.59961 44.2667 7.59961H40.9333Z" fill="#E2E8F0"/>
<path d="M72.9333 7.59961V4.26628C72.9333 4.08947 72.8631 3.9199 72.7381 3.79487C72.6131 3.66985 72.4435 3.59961 72.2667 3.59961C72.0899 3.59961 71.9203 3.66985 71.7953 3.79487C71.6702 3.9199 71.6 4.08947 71.6 4.26628V7.59961H68.2667C68.0899 7.59961 67.9203 7.66985 67.7953 7.79487C67.6702 7.9199 67.6 8.08946 67.6 8.26628C67.6 8.44309 67.6702 8.61266 67.7953 8.73768C67.9203 8.8627 68.0899 8.93294 68.2667 8.93294H71.6V12.2663C71.6 12.4431 71.6702 12.6127 71.7953 12.7377C71.9203 12.8627 72.0899 12.9329 72.2667 12.9329C72.4435 12.9329 72.6131 12.8627 72.7381 12.7377C72.8631 12.6127 72.9333 12.4431 72.9333 12.2663V8.93294H76.2667C76.4435 8.93294 76.6131 8.8627 76.7381 8.73768C76.8631 8.61266 76.9333 8.44309 76.9333 8.26628C76.9333 8.08946 76.8631 7.9199 76.7381 7.79487C76.6131 7.66985 76.4435 7.59961 76.2667 7.59961H72.9333Z" fill="#E2E8F0"/>
<path d="M104.933 7.59961V4.26628C104.933 4.08947 104.863 3.9199 104.738 3.79487C104.613 3.66985 104.443 3.59961 104.267 3.59961C104.09 3.59961 103.92 3.66985 103.795 3.79487C103.67 3.9199 103.6 4.08947 103.6 4.26628V7.59961H100.267C100.09 7.59961 99.9203 7.66985 99.7953 7.79487C99.6702 7.9199 99.6 8.08946 99.6 8.26628C99.6 8.44309 99.6702 8.61266 99.7953 8.73768C99.9203 8.8627 100.09 8.93294 100.267 8.93294H103.6V12.2663C103.6 12.4431 103.67 12.6127 103.795 12.7377C103.92 12.8627 104.09 12.9329 104.267 12.9329C104.443 12.9329 104.613 12.8627 104.738 12.7377C104.863 12.6127 104.933 12.4431 104.933 12.2663V8.93294H108.267C108.443 8.93294 108.613 8.8627 108.738 8.73768C108.863 8.61266 108.933 8.44309 108.933 8.26628C108.933 8.08946 108.863 7.9199 108.738 7.79487C108.613 7.66985 108.443 7.59961 108.267 7.59961H104.933Z" fill="#E2E8F0"/>
<path d="M136.933 7.59961V4.26628C136.933 4.08947 136.863 3.9199 136.738 3.79487C136.613 3.66985 136.443 3.59961 136.267 3.59961C136.09 3.59961 135.92 3.66985 135.795 3.79487C135.67 3.9199 135.6 4.08947 135.6 4.26628V7.59961H132.267C132.09 7.59961 131.92 7.66985 131.795 7.79487C131.67 7.9199 131.6 8.08946 131.6 8.26628C131.6 8.44309 131.67 8.61266 131.795 8.73768C131.92 8.8627 132.09 8.93294 132.267 8.93294H135.6V12.2663C135.6 12.4431 135.67 12.6127 135.795 12.7377C135.92 12.8627 136.09 12.9329 136.267 12.9329C136.443 12.9329 136.613 12.8627 136.738 12.7377C136.863 12.6127 136.933 12.4431 136.933 12.2663V8.93294H140.267C140.443 8.93294 140.613 8.8627 140.738 8.73768C140.863 8.61266 140.933 8.44309 140.933 8.26628C140.933 8.08946 140.863 7.9199 140.738 7.79487C140.613 7.66985 140.443 7.59961 140.267 7.59961H136.933Z" fill="#2563EB"/>
<path d="M168.933 7.59961V4.26628C168.933 4.08947 168.863 3.9199 168.738 3.79487C168.613 3.66985 168.443 3.59961 168.267 3.59961C168.09 3.59961 167.92 3.66985 167.795 3.79487C167.67 3.9199 167.6 4.08947 167.6 4.26628V7.59961H164.267C164.09 7.59961 163.92 7.66985 163.795 7.79487C163.67 7.9199 163.6 8.08946 163.6 8.26628C163.6 8.44309 163.67 8.61266 163.795 8.73768C163.92 8.8627 164.09 8.93294 164.267 8.93294H167.6V12.2663C167.6 12.4431 167.67 12.6127 167.795 12.7377C167.92 12.8627 168.09 12.9329 168.267 12.9329C168.443 12.9329 168.613 12.8627 168.738 12.7377C168.863 12.6127 168.933 12.4431 168.933 12.2663V8.93294H172.267C172.443 8.93294 172.613 8.8627 172.738 8.73768C172.863 8.61266 172.933 8.44309 172.933 8.26628C172.933 8.08946 172.863 7.9199 172.738 7.79487C172.613 7.66985 172.443 7.59961 172.267 7.59961H168.933Z" fill="#E2E8F0"/>
<path d="M8.93333 39.5996V36.2663C8.93333 36.0895 8.86309 35.9199 8.73807 35.7949C8.61305 35.6698 8.44348 35.5996 8.26666 35.5996C8.08985 35.5996 7.92028 35.6698 7.79526 35.7949C7.67024 35.9199 7.6 36.0895 7.6 36.2663V39.5996H4.26667C4.08985 39.5996 3.92028 39.6698 3.79526 39.7949C3.67024 39.9199 3.6 40.0895 3.6 40.2663C3.6 40.4431 3.67024 40.6127 3.79526 40.7377C3.92028 40.8627 4.08985 40.9329 4.26667 40.9329H7.6V44.2663C7.6 44.4431 7.67024 44.6127 7.79526 44.7377C7.92028 44.8627 8.08985 44.9329 8.26666 44.9329C8.44348 44.9329 8.61305 44.8627 8.73807 44.7377C8.86309 44.6127 8.93333 44.4431 8.93333 44.2663V40.9329H12.2667C12.4435 40.9329 12.613 40.8627 12.7381 40.7377C12.8631 40.6127 12.9333 40.4431 12.9333 40.2663C12.9333 40.0895 12.8631 39.9199 12.7381 39.7949C12.613 39.6698 12.4435 39.5996 12.2667 39.5996H8.93333Z" fill="#E2E8F0"/>
<path d="M40.9333 39.5996V36.2663C40.9333 36.0895 40.8631 35.9199 40.7381 35.7949C40.613 35.6698 40.4435 35.5996 40.2667 35.5996C40.0899 35.5996 39.9203 35.6698 39.7953 35.7949C39.6702 35.9199 39.6 36.0895 39.6 36.2663V39.5996H36.2667C36.0899 39.5996 35.9203 39.6698 35.7953 39.7949C35.6702 39.9199 35.6 40.0895 35.6 40.2663C35.6 40.4431 35.6702 40.6127 35.7953 40.7377C35.9203 40.8627 36.0899 40.9329 36.2667 40.9329H39.6V44.2663C39.6 44.4431 39.6702 44.6127 39.7953 44.7377C39.9203 44.8627 40.0899 44.9329 40.2667 44.9329C40.4435 44.9329 40.613 44.8627 40.7381 44.7377C40.8631 44.6127 40.9333 44.4431 40.9333 44.2663V40.9329H44.2667C44.4435 40.9329 44.613 40.8627 44.7381 40.7377C44.8631 40.6127 44.9333 40.4431 44.9333 40.2663C44.9333 40.0895 44.8631 39.9199 44.7381 39.7949C44.613 39.6698 44.4435 39.5996 44.2667 39.5996H40.9333Z" fill="#9333EA"/>
<path d="M72.9333 39.5996V36.2663C72.9333 36.0895 72.8631 35.9199 72.7381 35.7949C72.6131 35.6698 72.4435 35.5996 72.2667 35.5996C72.0899 35.5996 71.9203 35.6698 71.7953 35.7949C71.6702 35.9199 71.6 36.0895 71.6 36.2663V39.5996H68.2667C68.0899 39.5996 67.9203 39.6698 67.7953 39.7949C67.6702 39.9199 67.6 40.0895 67.6 40.2663C67.6 40.4431 67.6702 40.6127 67.7953 40.7377C67.9203 40.8627 68.0899 40.9329 68.2667 40.9329H71.6V44.2663C71.6 44.4431 71.6702 44.6127 71.7953 44.7377C71.9203 44.8627 72.0899 44.9329 72.2667 44.9329C72.4435 44.9329 72.6131 44.8627 72.7381 44.7377C72.8631 44.6127 72.9333 44.4431 72.9333 44.2663V40.9329H76.2667C76.4435 40.9329 76.6131 40.8627 76.7381 40.7377C76.8631 40.6127 76.9333 40.4431 76.9333 40.2663C76.9333 40.0895 76.8631 39.9199 76.7381 39.7949C76.6131 39.6698 76.4435 39.5996 76.2667 39.5996H72.9333Z" fill="#E2E8F0"/>
<path d="M104.933 39.5996V36.2663C104.933 36.0895 104.863 35.9199 104.738 35.7949C104.613 35.6698 104.443 35.5996 104.267 35.5996C104.09 35.5996 103.92 35.6698 103.795 35.7949C103.67 35.9199 103.6 36.0895 103.6 36.2663V39.5996H100.267C100.09 39.5996 99.9203 39.6698 99.7953 39.7949C99.6702 39.9199 99.6 40.0895 99.6 40.2663C99.6 40.4431 99.6702 40.6127 99.7953 40.7377C99.9203 40.8627 100.09 40.9329 100.267 40.9329H103.6V44.2663C103.6 44.4431 103.67 44.6127 103.795 44.7377C103.92 44.8627 104.09 44.9329 104.267 44.9329C104.443 44.9329 104.613 44.8627 104.738 44.7377C104.863 44.6127 104.933 44.4431 104.933 44.2663V40.9329H108.267C108.443 40.9329 108.613 40.8627 108.738 40.7377C108.863 40.6127 108.933 40.4431 108.933 40.2663C108.933 40.0895 108.863 39.9199 108.738 39.7949C108.613 39.6698 108.443 39.5996 108.267 39.5996H104.933Z" fill="#E2E8F0"/>
<path d="M136.933 39.5996V36.2663C136.933 36.0895 136.863 35.9199 136.738 35.7949C136.613 35.6698 136.443 35.5996 136.267 35.5996C136.09 35.5996 135.92 35.6698 135.795 35.7949C135.67 35.9199 135.6 36.0895 135.6 36.2663V39.5996H132.267C132.09 39.5996 131.92 39.6698 131.795 39.7949C131.67 39.9199 131.6 40.0895 131.6 40.2663C131.6 40.4431 131.67 40.6127 131.795 40.7377C131.92 40.8627 132.09 40.9329 132.267 40.9329H135.6V44.2663C135.6 44.4431 135.67 44.6127 135.795 44.7377C135.92 44.8627 136.09 44.9329 136.267 44.9329C136.443 44.9329 136.613 44.8627 136.738 44.7377C136.863 44.6127 136.933 44.4431 136.933 44.2663V40.9329H140.267C140.443 40.9329 140.613 40.8627 140.738 40.7377C140.863 40.6127 140.933 40.4431 140.933 40.2663C140.933 40.0895 140.863 39.9199 140.738 39.7949C140.613 39.6698 140.443 39.5996 140.267 39.5996H136.933Z" fill="#E2E8F0"/>
<path d="M168.933 39.5996V36.2663C168.933 36.0895 168.863 35.9199 168.738 35.7949C168.613 35.6698 168.443 35.5996 168.267 35.5996C168.09 35.5996 167.92 35.6698 167.795 35.7949C167.67 35.9199 167.6 36.0895 167.6 36.2663V39.5996H164.267C164.09 39.5996 163.92 39.6698 163.795 39.7949C163.67 39.9199 163.6 40.0895 163.6 40.2663C163.6 40.4431 163.67 40.6127 163.795 40.7377C163.92 40.8627 164.09 40.9329 164.267 40.9329H167.6V44.2663C167.6 44.4431 167.67 44.6127 167.795 44.7377C167.92 44.8627 168.09 44.9329 168.267 44.9329C168.443 44.9329 168.613 44.8627 168.738 44.7377C168.863 44.6127 168.933 44.4431 168.933 44.2663V40.9329H172.267C172.443 40.9329 172.613 40.8627 172.738 40.7377C172.863 40.6127 172.933 40.4431 172.933 40.2663C172.933 40.0895 172.863 39.9199 172.738 39.7949C172.613 39.6698 172.443 39.5996 172.267 39.5996H168.933Z" fill="#E2E8F0"/>
<path d="M8.93333 71.5996V68.2663C8.93333 68.0895 8.86309 67.9199 8.73807 67.7949C8.61305 67.6698 8.44348 67.5996 8.26666 67.5996C8.08985 67.5996 7.92028 67.6698 7.79526 67.7949C7.67024 67.9199 7.6 68.0895 7.6 68.2663V71.5996H4.26667C4.08985 71.5996 3.92028 71.6698 3.79526 71.7949C3.67024 71.9199 3.6 72.0895 3.6 72.2663C3.6 72.4431 3.67024 72.6127 3.79526 72.7377C3.92028 72.8627 4.08985 72.9329 4.26667 72.9329H7.6V76.2663C7.6 76.4431 7.67024 76.6127 7.79526 76.7377C7.92028 76.8627 8.08985 76.9329 8.26666 76.9329C8.44348 76.9329 8.61305 76.8627 8.73807 76.7377C8.86309 76.6127 8.93333 76.4431 8.93333 76.2663V72.9329H12.2667C12.4435 72.9329 12.613 72.8627 12.7381 72.7377C12.8631 72.6127 12.9333 72.4431 12.9333 72.2663C12.9333 72.0895 12.8631 71.9199 12.7381 71.7949C12.613 71.6698 12.4435 71.5996 12.2667 71.5996H8.93333Z" fill="#E2E8F0"/>
<path d="M40.9333 71.5996V68.2663C40.9333 68.0895 40.8631 67.9199 40.7381 67.7949C40.613 67.6698 40.4435 67.5996 40.2667 67.5996C40.0899 67.5996 39.9203 67.6698 39.7953 67.7949C39.6702 67.9199 39.6 68.0895 39.6 68.2663V71.5996H36.2667C36.0899 71.5996 35.9203 71.6698 35.7953 71.7949C35.6702 71.9199 35.6 72.0895 35.6 72.2663C35.6 72.4431 35.6702 72.6127 35.7953 72.7377C35.9203 72.8627 36.0899 72.9329 36.2667 72.9329H39.6V76.2663C39.6 76.4431 39.6702 76.6127 39.7953 76.7377C39.9203 76.8627 40.0899 76.9329 40.2667 76.9329C40.4435 76.9329 40.613 76.8627 40.7381 76.7377C40.8631 76.6127 40.9333 76.4431 40.9333 76.2663V72.9329H44.2667C44.4435 72.9329 44.613 72.8627 44.7381 72.7377C44.8631 72.6127 44.9333 72.4431 44.9333 72.2663C44.9333 72.0895 44.8631 71.9199 44.7381 71.7949C44.613 71.6698 44.4435 71.5996 44.2667 71.5996H40.9333Z" fill="#E2E8F0"/>
<path d="M72.9333 71.5996V68.2663C72.9333 68.0895 72.8631 67.9199 72.7381 67.7949C72.6131 67.6698 72.4435 67.5996 72.2667 67.5996C72.0899 67.5996 71.9203 67.6698 71.7953 67.7949C71.6702 67.9199 71.6 68.0895 71.6 68.2663V71.5996H68.2667C68.0899 71.5996 67.9203 71.6698 67.7953 71.7949C67.6702 71.9199 67.6 72.0895 67.6 72.2663C67.6 72.4431 67.6702 72.6127 67.7953 72.7377C67.9203 72.8627 68.0899 72.9329 68.2667 72.9329H71.6V76.2663C71.6 76.4431 71.6702 76.6127 71.7953 76.7377C71.9203 76.8627 72.0899 76.9329 72.2667 76.9329C72.4435 76.9329 72.6131 76.8627 72.7381 76.7377C72.8631 76.6127 72.9333 76.4431 72.9333 76.2663V72.9329H76.2667C76.4435 72.9329 76.6131 72.8627 76.7381 72.7377C76.8631 72.6127 76.9333 72.4431 76.9333 72.2663C76.9333 72.0895 76.8631 71.9199 76.7381 71.7949C76.6131 71.6698 76.4435 71.5996 76.2667 71.5996H72.9333Z" fill="#E2E8F0"/>
<path d="M104.933 71.5996V68.2663C104.933 68.0895 104.863 67.9199 104.738 67.7949C104.613 67.6698 104.443 67.5996 104.267 67.5996C104.09 67.5996 103.92 67.6698 103.795 67.7949C103.67 67.9199 103.6 68.0895 103.6 68.2663V71.5996H100.267C100.09 71.5996 99.9203 71.6698 99.7953 71.7949C99.6702 71.9199 99.6 72.0895 99.6 72.2663C99.6 72.4431 99.6702 72.6127 99.7953 72.7377C99.9203 72.8627 100.09 72.9329 100.267 72.9329H103.6V76.2663C103.6 76.4431 103.67 76.6127 103.795 76.7377C103.92 76.8627 104.09 76.9329 104.267 76.9329C104.443 76.9329 104.613 76.8627 104.738 76.7377C104.863 76.6127 104.933 76.4431 104.933 76.2663V72.9329H108.267C108.443 72.9329 108.613 72.8627 108.738 72.7377C108.863 72.6127 108.933 72.4431 108.933 72.2663C108.933 72.0895 108.863 71.9199 108.738 71.7949C108.613 71.6698 108.443 71.5996 108.267 71.5996H104.933Z" fill="#E2E8F0"/>
<path d="M136.933 71.5996V68.2663C136.933 68.0895 136.863 67.9199 136.738 67.7949C136.613 67.6698 136.443 67.5996 136.267 67.5996C136.09 67.5996 135.92 67.6698 135.795 67.7949C135.67 67.9199 135.6 68.0895 135.6 68.2663V71.5996H132.267C132.09 71.5996 131.92 71.6698 131.795 71.7949C131.67 71.9199 131.6 72.0895 131.6 72.2663C131.6 72.4431 131.67 72.6127 131.795 72.7377C131.92 72.8627 132.09 72.9329 132.267 72.9329H135.6V76.2663C135.6 76.4431 135.67 76.6127 135.795 76.7377C135.92 76.8627 136.09 76.9329 136.267 76.9329C136.443 76.9329 136.613 76.8627 136.738 76.7377C136.863 76.6127 136.933 76.4431 136.933 76.2663V72.9329H140.267C140.443 72.9329 140.613 72.8627 140.738 72.7377C140.863 72.6127 140.933 72.4431 140.933 72.2663C140.933 72.0895 140.863 71.9199 140.738 71.7949C140.613 71.6698 140.443 71.5996 140.267 71.5996H136.933Z" fill="#E2E8F0"/>
<path d="M168.933 71.5996V68.2663C168.933 68.0895 168.863 67.9199 168.738 67.7949C168.613 67.6698 168.443 67.5996 168.267 67.5996C168.09 67.5996 167.92 67.6698 167.795 67.7949C167.67 67.9199 167.6 68.0895 167.6 68.2663V71.5996H164.267C164.09 71.5996 163.92 71.6698 163.795 71.7949C163.67 71.9199 163.6 72.0895 163.6 72.2663C163.6 72.4431 163.67 72.6127 163.795 72.7377C163.92 72.8627 164.09 72.9329 164.267 72.9329H167.6V76.2663C167.6 76.4431 167.67 76.6127 167.795 76.7377C167.92 76.8627 168.09 76.9329 168.267 76.9329C168.443 76.9329 168.613 76.8627 168.738 76.7377C168.863 76.6127 168.933 76.4431 168.933 76.2663V72.9329H172.267C172.443 72.9329 172.613 72.8627 172.738 72.7377C172.863 72.6127 172.933 72.4431 172.933 72.2663C172.933 72.0895 172.863 71.9199 172.738 71.7949C172.613 71.6698 172.443 71.5996 172.267 71.5996H168.933Z" fill="#E2E8F0"/>
<path d="M8.93333 103.6V100.266C8.93333 100.089 8.86309 99.9199 8.73807 99.7949C8.61305 99.6698 8.44348 99.5996 8.26666 99.5996C8.08985 99.5996 7.92028 99.6698 7.79526 99.7949C7.67024 99.9199 7.6 100.089 7.6 100.266V103.6H4.26667C4.08985 103.6 3.92028 103.67 3.79526 103.795C3.67024 103.92 3.6 104.089 3.6 104.266C3.6 104.443 3.67024 104.613 3.79526 104.738C3.92028 104.863 4.08985 104.933 4.26667 104.933H7.6V108.266C7.6 108.443 7.67024 108.613 7.79526 108.738C7.92028 108.863 8.08985 108.933 8.26666 108.933C8.44348 108.933 8.61305 108.863 8.73807 108.738C8.86309 108.613 8.93333 108.443 8.93333 108.266V104.933H12.2667C12.4435 104.933 12.613 104.863 12.7381 104.738C12.8631 104.613 12.9333 104.443 12.9333 104.266C12.9333 104.089 12.8631 103.92 12.7381 103.795C12.613 103.67 12.4435 103.6 12.2667 103.6H8.93333Z" fill="#E2E8F0"/>
<path d="M40.9333 103.6V100.266C40.9333 100.089 40.8631 99.9199 40.7381 99.7949C40.613 99.6698 40.4435 99.5996 40.2667 99.5996C40.0899 99.5996 39.9203 99.6698 39.7953 99.7949C39.6702 99.9199 39.6 100.089 39.6 100.266V103.6H36.2667C36.0899 103.6 35.9203 103.67 35.7953 103.795C35.6702 103.92 35.6 104.089 35.6 104.266C35.6 104.443 35.6702 104.613 35.7953 104.738C35.9203 104.863 36.0899 104.933 36.2667 104.933H39.6V108.266C39.6 108.443 39.6702 108.613 39.7953 108.738C39.9203 108.863 40.0899 108.933 40.2667 108.933C40.4435 108.933 40.613 108.863 40.7381 108.738C40.8631 108.613 40.9333 108.443 40.9333 108.266V104.933H44.2667C44.4435 104.933 44.613 104.863 44.7381 104.738C44.8631 104.613 44.9333 104.443 44.9333 104.266C44.9333 104.089 44.8631 103.92 44.7381 103.795C44.613 103.67 44.4435 103.6 44.2667 103.6H40.9333Z" fill="#E2E8F0"/>
<path d="M72.9333 103.6V100.266C72.9333 100.089 72.8631 99.9199 72.7381 99.7949C72.6131 99.6698 72.4435 99.5996 72.2667 99.5996C72.0899 99.5996 71.9203 99.6698 71.7953 99.7949C71.6702 99.9199 71.6 100.089 71.6 100.266V103.6H68.2667C68.0899 103.6 67.9203 103.67 67.7953 103.795C67.6702 103.92 67.6 104.089 67.6 104.266C67.6 104.443 67.6702 104.613 67.7953 104.738C67.9203 104.863 68.0899 104.933 68.2667 104.933H71.6V108.266C71.6 108.443 71.6702 108.613 71.7953 108.738C71.9203 108.863 72.0899 108.933 72.2667 108.933C72.4435 108.933 72.6131 108.863 72.7381 108.738C72.8631 108.613 72.9333 108.443 72.9333 108.266V104.933H76.2667C76.4435 104.933 76.6131 104.863 76.7381 104.738C76.8631 104.613 76.9333 104.443 76.9333 104.266C76.9333 104.089 76.8631 103.92 76.7381 103.795C76.6131 103.67 76.4435 103.6 76.2667 103.6H72.9333Z" fill="#E2E8F0"/>
<path d="M104.933 103.6V100.266C104.933 100.089 104.863 99.9199 104.738 99.7949C104.613 99.6698 104.443 99.5996 104.267 99.5996C104.09 99.5996 103.92 99.6698 103.795 99.7949C103.67 99.9199 103.6 100.089 103.6 100.266V103.6H100.267C100.09 103.6 99.9203 103.67 99.7953 103.795C99.6702 103.92 99.6 104.089 99.6 104.266C99.6 104.443 99.6702 104.613 99.7953 104.738C99.9203 104.863 100.09 104.933 100.267 104.933H103.6V108.266C103.6 108.443 103.67 108.613 103.795 108.738C103.92 108.863 104.09 108.933 104.267 108.933C104.443 108.933 104.613 108.863 104.738 108.738C104.863 108.613 104.933 108.443 104.933 108.266V104.933H108.267C108.443 104.933 108.613 104.863 108.738 104.738C108.863 104.613 108.933 104.443 108.933 104.266C108.933 104.089 108.863 103.92 108.738 103.795C108.613 103.67 108.443 103.6 108.267 103.6H104.933Z" fill="#E2E8F0"/>
<path d="M136.933 103.6V100.266C136.933 100.089 136.863 99.9199 136.738 99.7949C136.613 99.6698 136.443 99.5996 136.267 99.5996C136.09 99.5996 135.92 99.6698 135.795 99.7949C135.67 99.9199 135.6 100.089 135.6 100.266V103.6H132.267C132.09 103.6 131.92 103.67 131.795 103.795C131.67 103.92 131.6 104.089 131.6 104.266C131.6 104.443 131.67 104.613 131.795 104.738C131.92 104.863 132.09 104.933 132.267 104.933H135.6V108.266C135.6 108.443 135.67 108.613 135.795 108.738C135.92 108.863 136.09 108.933 136.267 108.933C136.443 108.933 136.613 108.863 136.738 108.738C136.863 108.613 136.933 108.443 136.933 108.266V104.933H140.267C140.443 104.933 140.613 104.863 140.738 104.738C140.863 104.613 140.933 104.443 140.933 104.266C140.933 104.089 140.863 103.92 140.738 103.795C140.613 103.67 140.443 103.6 140.267 103.6H136.933Z" fill="#E2E8F0"/>
<path d="M168.933 103.6V100.266C168.933 100.089 168.863 99.9199 168.738 99.7949C168.613 99.6698 168.443 99.5996 168.267 99.5996C168.09 99.5996 167.92 99.6698 167.795 99.7949C167.67 99.9199 167.6 100.089 167.6 100.266V103.6H164.267C164.09 103.6 163.92 103.67 163.795 103.795C163.67 103.92 163.6 104.089 163.6 104.266C163.6 104.443 163.67 104.613 163.795 104.738C163.92 104.863 164.09 104.933 164.267 104.933H167.6V108.266C167.6 108.443 167.67 108.613 167.795 108.738C167.92 108.863 168.09 108.933 168.267 108.933C168.443 108.933 168.613 108.863 168.738 108.738C168.863 108.613 168.933 108.443 168.933 108.266V104.933H172.267C172.443 104.933 172.613 104.863 172.738 104.738C172.863 104.613 172.933 104.443 172.933 104.266C172.933 104.089 172.863 103.92 172.738 103.795C172.613 103.67 172.443 103.6 172.267 103.6H168.933Z" fill="#EA580C"/>
<path d="M8.93333 135.6V132.266C8.93333 132.089 8.86309 131.92 8.73807 131.795C8.61305 131.67 8.44348 131.6 8.26666 131.6C8.08985 131.6 7.92028 131.67 7.79526 131.795C7.67024 131.92 7.6 132.089 7.6 132.266V135.6H4.26667C4.08985 135.6 3.92028 135.67 3.79526 135.795C3.67024 135.92 3.6 136.089 3.6 136.266C3.6 136.443 3.67024 136.613 3.79526 136.738C3.92028 136.863 4.08985 136.933 4.26667 136.933H7.6V140.266C7.6 140.443 7.67024 140.613 7.79526 140.738C7.92028 140.863 8.08985 140.933 8.26666 140.933C8.44348 140.933 8.61305 140.863 8.73807 140.738C8.86309 140.613 8.93333 140.443 8.93333 140.266V136.933H12.2667C12.4435 136.933 12.613 136.863 12.7381 136.738C12.8631 136.613 12.9333 136.443 12.9333 136.266C12.9333 136.089 12.8631 135.92 12.7381 135.795C12.613 135.67 12.4435 135.6 12.2667 135.6H8.93333Z" fill="#E2E8F0"/>
<path d="M40.9333 135.6V132.266C40.9333 132.089 40.8631 131.92 40.7381 131.795C40.613 131.67 40.4435 131.6 40.2667 131.6C40.0899 131.6 39.9203 131.67 39.7953 131.795C39.6702 131.92 39.6 132.089 39.6 132.266V135.6H36.2667C36.0899 135.6 35.9203 135.67 35.7953 135.795C35.6702 135.92 35.6 136.089 35.6 136.266C35.6 136.443 35.6702 136.613 35.7953 136.738C35.9203 136.863 36.0899 136.933 36.2667 136.933H39.6V140.266C39.6 140.443 39.6702 140.613 39.7953 140.738C39.9203 140.863 40.0899 140.933 40.2667 140.933C40.4435 140.933 40.613 140.863 40.7381 140.738C40.8631 140.613 40.9333 140.443 40.9333 140.266V136.933H44.2667C44.4435 136.933 44.613 136.863 44.7381 136.738C44.8631 136.613 44.9333 136.443 44.9333 136.266C44.9333 136.089 44.8631 135.92 44.7381 135.795C44.613 135.67 44.4435 135.6 44.2667 135.6H40.9333Z" fill="#E2E8F0"/>
<path d="M72.9333 135.6V132.266C72.9333 132.089 72.8631 131.92 72.7381 131.795C72.6131 131.67 72.4435 131.6 72.2667 131.6C72.0899 131.6 71.9203 131.67 71.7953 131.795C71.6702 131.92 71.6 132.089 71.6 132.266V135.6H68.2667C68.0899 135.6 67.9203 135.67 67.7953 135.795C67.6702 135.92 67.6 136.089 67.6 136.266C67.6 136.443 67.6702 136.613 67.7953 136.738C67.9203 136.863 68.0899 136.933 68.2667 136.933H71.6V140.266C71.6 140.443 71.6702 140.613 71.7953 140.738C71.9203 140.863 72.0899 140.933 72.2667 140.933C72.4435 140.933 72.6131 140.863 72.7381 140.738C72.8631 140.613 72.9333 140.443 72.9333 140.266V136.933H76.2667C76.4435 136.933 76.6131 136.863 76.7381 136.738C76.8631 136.613 76.9333 136.443 76.9333 136.266C76.9333 136.089 76.8631 135.92 76.7381 135.795C76.6131 135.67 76.4435 135.6 76.2667 135.6H72.9333Z" fill="#E2E8F0"/>
<path d="M104.933 135.6V132.266C104.933 132.089 104.863 131.92 104.738 131.795C104.613 131.67 104.443 131.6 104.267 131.6C104.09 131.6 103.92 131.67 103.795 131.795C103.67 131.92 103.6 132.089 103.6 132.266V135.6H100.267C100.09 135.6 99.9203 135.67 99.7953 135.795C99.6702 135.92 99.6 136.089 99.6 136.266C99.6 136.443 99.6702 136.613 99.7953 136.738C99.9203 136.863 100.09 136.933 100.267 136.933H103.6V140.266C103.6 140.443 103.67 140.613 103.795 140.738C103.92 140.863 104.09 140.933 104.267 140.933C104.443 140.933 104.613 140.863 104.738 140.738C104.863 140.613 104.933 140.443 104.933 140.266V136.933H108.267C108.443 136.933 108.613 136.863 108.738 136.738C108.863 136.613 108.933 136.443 108.933 136.266C108.933 136.089 108.863 135.92 108.738 135.795C108.613 135.67 108.443 135.6 108.267 135.6H104.933Z" fill="#E2E8F0"/>
<path d="M136.933 135.6V132.266C136.933 132.089 136.863 131.92 136.738 131.795C136.613 131.67 136.443 131.6 136.267 131.6C136.09 131.6 135.92 131.67 135.795 131.795C135.67 131.92 135.6 132.089 135.6 132.266V135.6H132.267C132.09 135.6 131.92 135.67 131.795 135.795C131.67 135.92 131.6 136.089 131.6 136.266C131.6 136.443 131.67 136.613 131.795 136.738C131.92 136.863 132.09 136.933 132.267 136.933H135.6V140.266C135.6 140.443 135.67 140.613 135.795 140.738C135.92 140.863 136.09 140.933 136.267 140.933C136.443 140.933 136.613 140.863 136.738 140.738C136.863 140.613 136.933 140.443 136.933 140.266V136.933H140.267C140.443 136.933 140.613 136.863 140.738 136.738C140.863 136.613 140.933 136.443 140.933 136.266C140.933 136.089 140.863 135.92 140.738 135.795C140.613 135.67 140.443 135.6 140.267 135.6H136.933Z" fill="#9333EA"/>
<path d="M168.933 135.6V132.266C168.933 132.089 168.863 131.92 168.738 131.795C168.613 131.67 168.443 131.6 168.267 131.6C168.09 131.6 167.92 131.67 167.795 131.795C167.67 131.92 167.6 132.089 167.6 132.266V135.6H164.267C164.09 135.6 163.92 135.67 163.795 135.795C163.67 135.92 163.6 136.089 163.6 136.266C163.6 136.443 163.67 136.613 163.795 136.738C163.92 136.863 164.09 136.933 164.267 136.933H167.6V140.266C167.6 140.443 167.67 140.613 167.795 140.738C167.92 140.863 168.09 140.933 168.267 140.933C168.443 140.933 168.613 140.863 168.738 140.738C168.863 140.613 168.933 140.443 168.933 140.266V136.933H172.267C172.443 136.933 172.613 136.863 172.738 136.738C172.863 136.613 172.933 136.443 172.933 136.266C172.933 136.089 172.863 135.92 172.738 135.795C172.613 135.67 172.443 135.6 172.267 135.6H168.933Z" fill="#E2E8F0"/>
<path d="M8.93333 167.6V164.266C8.93333 164.089 8.86309 163.92 8.73807 163.795C8.61305 163.67 8.44348 163.6 8.26666 163.6C8.08985 163.6 7.92028 163.67 7.79526 163.795C7.67024 163.92 7.6 164.089 7.6 164.266V167.6H4.26667C4.08985 167.6 3.92028 167.67 3.79526 167.795C3.67024 167.92 3.6 168.089 3.6 168.266C3.6 168.443 3.67024 168.613 3.79526 168.738C3.92028 168.863 4.08985 168.933 4.26667 168.933H7.6V172.266C7.6 172.443 7.67024 172.613 7.79526 172.738C7.92028 172.863 8.08985 172.933 8.26666 172.933C8.44348 172.933 8.61305 172.863 8.73807 172.738C8.86309 172.613 8.93333 172.443 8.93333 172.266V168.933H12.2667C12.4435 168.933 12.613 168.863 12.7381 168.738C12.8631 168.613 12.9333 168.443 12.9333 168.266C12.9333 168.089 12.8631 167.92 12.7381 167.795C12.613 167.67 12.4435 167.6 12.2667 167.6H8.93333Z" fill="#E2E8F0"/>
<path d="M40.9333 167.6V164.266C40.9333 164.089 40.8631 163.92 40.7381 163.795C40.613 163.67 40.4435 163.6 40.2667 163.6C40.0899 163.6 39.9203 163.67 39.7953 163.795C39.6702 163.92 39.6 164.089 39.6 164.266V167.6H36.2667C36.0899 167.6 35.9203 167.67 35.7953 167.795C35.6702 167.92 35.6 168.089 35.6 168.266C35.6 168.443 35.6702 168.613 35.7953 168.738C35.9203 168.863 36.0899 168.933 36.2667 168.933H39.6V172.266C39.6 172.443 39.6702 172.613 39.7953 172.738C39.9203 172.863 40.0899 172.933 40.2667 172.933C40.4435 172.933 40.613 172.863 40.7381 172.738C40.8631 172.613 40.9333 172.443 40.9333 172.266V168.933H44.2667C44.4435 168.933 44.613 168.863 44.7381 168.738C44.8631 168.613 44.9333 168.443 44.9333 168.266C44.9333 168.089 44.8631 167.92 44.7381 167.795C44.613 167.67 44.4435 167.6 44.2667 167.6H40.9333Z" fill="#E2E8F0"/>
<path d="M72.9333 167.6V164.266C72.9333 164.089 72.8631 163.92 72.7381 163.795C72.6131 163.67 72.4435 163.6 72.2667 163.6C72.0899 163.6 71.9203 163.67 71.7953 163.795C71.6702 163.92 71.6 164.089 71.6 164.266V167.6H68.2667C68.0899 167.6 67.9203 167.67 67.7953 167.795C67.6702 167.92 67.6 168.089 67.6 168.266C67.6 168.443 67.6702 168.613 67.7953 168.738C67.9203 168.863 68.0899 168.933 68.2667 168.933H71.6V172.266C71.6 172.443 71.6702 172.613 71.7953 172.738C71.9203 172.863 72.0899 172.933 72.2667 172.933C72.4435 172.933 72.6131 172.863 72.7381 172.738C72.8631 172.613 72.9333 172.443 72.9333 172.266V168.933H76.2667C76.4435 168.933 76.6131 168.863 76.7381 168.738C76.8631 168.613 76.9333 168.443 76.9333 168.266C76.9333 168.089 76.8631 167.92 76.7381 167.795C76.6131 167.67 76.4435 167.6 76.2667 167.6H72.9333Z" fill="#2563EB"/>
<path d="M104.933 167.6V164.266C104.933 164.089 104.863 163.92 104.738 163.795C104.613 163.67 104.443 163.6 104.267 163.6C104.09 163.6 103.92 163.67 103.795 163.795C103.67 163.92 103.6 164.089 103.6 164.266V167.6H100.267C100.09 167.6 99.9203 167.67 99.7953 167.795C99.6702 167.92 99.6 168.089 99.6 168.266C99.6 168.443 99.6702 168.613 99.7953 168.738C99.9203 168.863 100.09 168.933 100.267 168.933H103.6V172.266C103.6 172.443 103.67 172.613 103.795 172.738C103.92 172.863 104.09 172.933 104.267 172.933C104.443 172.933 104.613 172.863 104.738 172.738C104.863 172.613 104.933 172.443 104.933 172.266V168.933H108.267C108.443 168.933 108.613 168.863 108.738 168.738C108.863 168.613 108.933 168.443 108.933 168.266C108.933 168.089 108.863 167.92 108.738 167.795C108.613 167.67 108.443 167.6 108.267 167.6H104.933Z" fill="#E2E8F0"/>
<path d="M136.933 167.6V164.266C136.933 164.089 136.863 163.92 136.738 163.795C136.613 163.67 136.443 163.6 136.267 163.6C136.09 163.6 135.92 163.67 135.795 163.795C135.67 163.92 135.6 164.089 135.6 164.266V167.6H132.267C132.09 167.6 131.92 167.67 131.795 167.795C131.67 167.92 131.6 168.089 131.6 168.266C131.6 168.443 131.67 168.613 131.795 168.738C131.92 168.863 132.09 168.933 132.267 168.933H135.6V172.266C135.6 172.443 135.67 172.613 135.795 172.738C135.92 172.863 136.09 172.933 136.267 172.933C136.443 172.933 136.613 172.863 136.738 172.738C136.863 172.613 136.933 172.443 136.933 172.266V168.933H140.267C140.443 168.933 140.613 168.863 140.738 168.738C140.863 168.613 140.933 168.443 140.933 168.266C140.933 168.089 140.863 167.92 140.738 167.795C140.613 167.67 140.443 167.6 140.267 167.6H136.933Z" fill="#E2E8F0"/>
<path d="M168.933 167.6V164.266C168.933 164.089 168.863 163.92 168.738 163.795C168.613 163.67 168.443 163.6 168.267 163.6C168.09 163.6 167.92 163.67 167.795 163.795C167.67 163.92 167.6 164.089 167.6 164.266V167.6H164.267C164.09 167.6 163.92 167.67 163.795 167.795C163.67 167.92 163.6 168.089 163.6 168.266C163.6 168.443 163.67 168.613 163.795 168.738C163.92 168.863 164.09 168.933 164.267 168.933H167.6V172.266C167.6 172.443 167.67 172.613 167.795 172.738C167.92 172.863 168.09 172.933 168.267 172.933C168.443 172.933 168.613 172.863 168.738 172.738C168.863 172.613 168.933 172.443 168.933 172.266V168.933H172.267C172.443 168.933 172.613 168.863 172.738 168.738C172.863 168.613 172.933 168.443 172.933 168.266C172.933 168.089 172.863 167.92 172.738 167.795C172.613 167.67 172.443 167.6 172.267 167.6H168.933Z" fill="#E2E8F0"/>
</svg>
