<svg width="1440" height="3119" viewBox="0 0 1440 3119" fill="none" xmlns="http://www.w3.org/2000/svg">
<path d="M209.698 2248.72C181.288 2088.98 353.029 1731.49 505.858 1527.79C681.982 1293.08 790.443 1319.34 911.044 1104.1C1021.11 907.724 986.995 785.455 1070.04 646.874C1146.36 519.519 1301.56 411.859 1639.76 459.193" stroke="url(#paint0_linear_45_289)" stroke-opacity="0.1" stroke-width="2" stroke-miterlimit="10"/>
<path d="M1635.37 492.779C1301.56 446.789 1145.32 551.917 1066.73 677.828C1008.51 771.224 1004.72 858.062 971.991 966.106C955.902 1020.7 932.105 1076.92 902.737 1129.73C806.568 1302.77 719.419 1324.59 595.226 1451.08C563.541 1483.24 532.215 1519.66 501.894 1559.58C347.665 1761.98 174.075 2105.22 197.588 2264.36" stroke="url(#paint1_linear_45_289)" stroke-opacity="0.1" stroke-width="2" stroke-miterlimit="10"/>
<path d="M1630.93 526.317C1301.52 481.701 1144.33 584.222 1063.64 708.477C1004.33 799.819 998.175 885.961 964.552 991.967C947.594 1046.55 923.694 1102.31 894.673 1155C800.22 1326.44 715.428 1354.58 591.307 1482.89C559.743 1515.44 528.527 1551.7 498.157 1591.08C342.662 1792.66 167.079 2121.15 185.693 2279.69" stroke="url(#paint2_linear_45_289)" stroke-opacity="0.1" stroke-width="2" stroke-miterlimit="10"/>
<path d="M1626.5 559.728C1301.57 516.49 1143.35 616.529 1060.45 739.196C1000.02 828.598 991.574 913.864 956.989 1017.96C939.211 1072.45 915.233 1127.72 886.584 1180.26C793.747 1350.24 711.526 1384.38 587.362 1514.7C555.885 1547.59 524.734 1583.71 494.294 1622.61C337.465 1823.08 159.982 2137.08 173.697 2295.02" stroke="url(#paint3_linear_45_289)" stroke-opacity="0.1" stroke-width="2" stroke-miterlimit="10"/>
<path d="M1622.11 593.233C1301.57 551.311 1142.45 648.784 1057.25 769.965C995.784 857.351 984.922 941.908 949.374 1043.98C930.761 1098.42 906.657 1153.3 878.326 1205.76C787.105 1374.27 707.389 1414.54 583.123 1546.91C551.815 1580.14 520.806 1616.07 490.37 1654.37C332.182 1853.77 152.805 2153.31 161.596 2310.68" stroke="url(#paint4_linear_45_289)" stroke-opacity="0.1" stroke-width="2" stroke-miterlimit="10"/>
<path d="M1617.81 626.48C1301.58 586.031 1140.64 678.86 1054.04 800.652C992.194 887.524 978.205 969.737 941.81 1069.91C922.362 1124.24 898.134 1178.72 870.135 1231.1C780.53 1398.16 703.369 1444.49 579.184 1578.71C548 1612.24 517.081 1648 486.62 1685.77C327.038 1884.03 145.793 2169.18 149.691 2325.97" stroke="url(#paint5_linear_45_289)" stroke-opacity="0.1" stroke-width="2" stroke-miterlimit="10"/>
<path d="M1613.28 659.984C1301.59 620.767 1140.68 713.293 1050.81 831.156C987.443 914.689 971.494 997.736 934.235 1095.87C913.979 1150.03 889.624 1204.14 861.957 1256.44C773.967 1422.04 699.278 1474.5 575.147 1610.61C544.096 1644.48 513.27 1680.1 482.79 1717.34C321.848 1914.54 138.676 2185.14 137.697 2341.4" stroke="url(#paint6_linear_45_289)" stroke-opacity="0.1" stroke-width="2" stroke-miterlimit="10"/>
<path d="M1608.88 693.323C1301.66 655.382 1139.78 745.371 1047.65 861.948C983.261 943.31 964.656 1025.6 926.642 1121.78C905.593 1175.74 881.097 1229.47 853.745 1281.68C767.402 1445.82 695.202 1504.47 571.076 1642.42C542.205 1674.55 511.564 1709.34 478.916 1748.79C316.566 1944.9 131.583 2201.18 125.687 2356.79" stroke="url(#paint7_linear_45_289)" stroke-opacity="0.1" stroke-width="2" stroke-miterlimit="10"/>
<path d="M1604.47 726.555C1301.61 690.093 1138.97 777.614 1044.45 892.441C979.091 971.875 957.805 1053.44 918.993 1147.66C897.147 1201.41 872.504 1254.83 845.476 1307.01C760.747 1469.69 691.06 1534.39 566.956 1674.35C538.061 1706.92 507.51 1741.66 474.968 1780.39C311.439 1975.13 124.481 2217.15 113.673 2372.14" stroke="url(#paint8_linear_45_289)" stroke-opacity="0.1" stroke-width="2" stroke-miterlimit="10"/>
<path d="M1600.03 759.773C1301.61 724.689 1138.15 809.789 1041.27 923.062C974.968 1000.56 950.843 1081.48 911.49 1173.43C888.88 1226.91 864.096 1280.01 837.403 1332.15C754.263 1493.42 687.08 1564.25 562.963 1706.01C534.169 1738.87 503.593 1773.64 471.164 1811.67C306.042 2005.44 117.324 2232.98 101.622 2387.39" stroke="url(#paint9_linear_45_289)" stroke-opacity="0.1" stroke-width="2" stroke-miterlimit="10"/>
<path d="M1595.63 792.902C1301.63 759.185 1137.34 841.948 1038.14 953.456C970.908 1029.04 944.027 1109.14 903.968 1199.17C880.585 1252.35 855.637 1305.15 829.268 1357.26C747.765 1517.05 683.077 1593.99 559.007 1737.83C530.205 1771.18 499.695 1805.84 467.413 1843.16C300.872 2035.73 110.336 2248.94 89.6813 2402.82" stroke="url(#paint10_linear_45_289)" stroke-opacity="0.1" stroke-width="2" stroke-miterlimit="10"/>
<path d="M1591.22 825.97C1301.64 793.68 1136.49 874.122 1034.88 983.969C966.709 1057.7 937.03 1136.97 896.363 1224.96C872.982 1275.52 848.973 1327.11 821.034 1382.47C741.136 1540.79 678.958 1623.88 554.908 1769.64C526.14 1803.39 495.671 1837.96 463.462 1874.69C295.501 2066.06 103.124 2264.97 77.5983 2418.26" stroke="url(#paint11_linear_45_289)" stroke-opacity="0.1" stroke-width="2" stroke-miterlimit="10"/>
<path d="M1586.82 858.956C1301.67 828.169 1135.82 906.039 1031.71 1014.34C962.582 1086.2 930.014 1164.69 888.781 1250.65C864.451 1301.37 840.231 1352.7 812.847 1407.56C734.585 1564.5 674.9 1653.61 550.853 1801.33C522.127 1835.51 491.674 1870.04 459.653 1905.97C290.281 2096.07 96.0557 2280.78 65.634 2433.5" stroke="url(#paint12_linear_45_289)" stroke-opacity="0.1" stroke-width="2" stroke-miterlimit="10"/>
<path d="M1582.46 891.802C1301.67 862.399 1134.9 938.287 1028.54 1044.66C958.484 1114.71 922.992 1192.34 881.21 1276.31C855.89 1327.19 831.493 1378.25 804.769 1432.49C728.068 1587.95 670.958 1683.2 546.815 1833.04C518.089 1867.63 487.701 1902.04 455.811 1937.32C284.985 2126.16 88.9373 2296.63 53.6191 2448.79" stroke="url(#paint13_linear_45_289)" stroke-opacity="0.1" stroke-width="2" stroke-miterlimit="10"/>
<path d="M1577.97 924.669C1301.67 896.615 1134.16 970.239 1025.34 1074.88C954.319 1143.15 915.921 1219.86 873.648 1301.81C847.328 1352.81 822.72 1403.72 796.475 1457.56C721.434 1611.52 666.765 1712.94 542.747 1864.6C512.744 1900.88 482.418 1935.56 451.89 1968.51C279.701 2156.12 81.7594 2312.58 41.5934 2464.02" stroke="url(#paint14_linear_45_289)" stroke-opacity="0.1" stroke-width="2" stroke-miterlimit="10"/>
<path d="M1573.56 957.361C1301.68 930.765 1133.21 1002.31 1022.24 1104.9C950.267 1171.4 908.921 1247.19 866.049 1327.33C838.721 1378.44 813.953 1429.13 788.294 1482.45C714.836 1635.01 662.69 1742.55 538.739 1896.06C508.886 1932.67 478.612 1967.29 448.102 1999.71C274.367 2185.92 74.7159 2328.26 29.5195 2479.19" stroke="url(#paint15_linear_45_289)" stroke-opacity="0.1" stroke-width="2" stroke-miterlimit="10"/>
<path d="M1569.15 989.93C1301.7 964.744 1132.31 1034.43 1018.97 1135.05C946.107 1199.78 901.754 1274.59 858.49 1352.68C830.146 1403.87 805.241 1454.41 780.134 1507.23C708.31 1658.33 658.625 1772.02 534.624 1927.6C504.913 1964.5 474.676 1999.04 444.183 2030.91C269.11 2215.79 67.6008 2344.02 17.5312 2494.47" stroke="url(#paint16_linear_45_289)" stroke-opacity="0.1" stroke-width="2" stroke-miterlimit="10"/>
<path d="M1564.69 1019.45C1301.78 996.077 1131.63 1063.63 1015.84 1162.67C941.955 1225.83 894.676 1299.58 850.959 1375.86C821.475 1427.27 796.5 1477.6 771.945 1529.99C701.685 1679.72 654.513 1799.65 530.492 1957.4C500.916 1994.62 470.709 2029.13 440.236 2060.52C263.717 2244.26 60.3868 2358.7 5.39036 2508.72" stroke="url(#paint17_linear_45_289)" stroke-opacity="0.1" stroke-width="2" stroke-miterlimit="10"/>
<path d="M1560.26 1048.72C1301.9 1026.78 1130.81 1092.82 1012.71 1190.13C937.859 1251.73 887.639 1324.38 843.446 1398.98C813.02 1450.46 787.759 1500.8 763.797 1552.67C695.136 1701.14 650.412 1827.25 526.369 1987.09C496.928 2024.63 466.746 2059.11 436.296 2090C258.323 2272.6 53.0952 2373.54 -6.72609 2522.9" stroke="url(#paint18_linear_45_289)" stroke-opacity="0.1" stroke-width="2" stroke-miterlimit="10"/>
<path d="M1555.83 1077.86C1301.82 1057.74 1129.95 1121.88 1009.53 1217.23C933.657 1277.3 880.506 1348.79 835.821 1421.68C804.305 1473.11 778.983 1523.49 755.556 1574.98C688.502 1722.11 646.23 1854.43 522.18 2016.51C492.878 2054.38 462.715 2088.85 432.29 2119.23C252.862 2300.58 45.9317 2387.6 -18.9181 2536.79" stroke="url(#paint19_linear_45_289)" stroke-opacity="0.1" stroke-width="2" stroke-miterlimit="10"/>
<path d="M1551.36 1107C1301.82 1088.47 1129.12 1150.96 1006.44 1244.22C929.583 1302.76 873.512 1373.01 828.361 1444.25C795.764 1495.67 770.314 1546.1 747.44 1597.05C681.953 1742.93 642.14 1881.51 518.08 2045.72C488.905 2083.9 458.751 2118.36 428.348 2148.27C247.522 2328.03 38.7965 2401.73 -31.0369 2550.57" stroke="url(#paint20_linear_45_289)" stroke-opacity="0.1" stroke-width="2" stroke-miterlimit="10"/>
<path d="M1546.95 1136.07C1149.18 1108.5 939.599 1285.47 820.668 1467.05C690.836 1665.26 681.251 1850.6 513.796 2075.2C317.349 2338.66 44.1135 2390.84 -43.2523 2564.42" stroke="url(#paint21_linear_45_289)" stroke-opacity="0.1" stroke-width="2" stroke-miterlimit="10"/>
<defs>
<linearGradient id="paint0_linear_45_289" x1="798.534" y1="1009.92" x2="1078.09" y2="1217.09" gradientUnits="userSpaceOnUse">
<stop stop-color="#155ADA"/>
<stop offset="1" stop-color="#0B743B"/>
</linearGradient>
<linearGradient id="paint1_linear_45_289" x1="793.736" y1="1043.95" x2="1073.33" y2="1251.16" gradientUnits="userSpaceOnUse">
<stop stop-color="#155ADA"/>
<stop offset="1" stop-color="#0B743B"/>
</linearGradient>
<linearGradient id="paint2_linear_45_289" x1="788.992" y1="1077.71" x2="1068.68" y2="1284.99" gradientUnits="userSpaceOnUse">
<stop stop-color="#155ADA"/>
<stop offset="1" stop-color="#0B743B"/>
</linearGradient>
<linearGradient id="paint3_linear_45_289" x1="784.167" y1="1111.32" x2="1064.02" y2="1318.71" gradientUnits="userSpaceOnUse">
<stop stop-color="#155ADA"/>
<stop offset="1" stop-color="#0B743B"/>
</linearGradient>
<linearGradient id="paint4_linear_45_289" x1="779.226" y1="1144.9" x2="1059.41" y2="1352.53" gradientUnits="userSpaceOnUse">
<stop stop-color="#155ADA"/>
<stop offset="1" stop-color="#0B743B"/>
</linearGradient>
<linearGradient id="paint5_linear_45_289" x1="774.344" y1="1177.94" x2="1055.02" y2="1385.93" gradientUnits="userSpaceOnUse">
<stop stop-color="#155ADA"/>
<stop offset="1" stop-color="#0B743B"/>
</linearGradient>
<linearGradient id="paint6_linear_45_289" x1="769.262" y1="1211.06" x2="1050.5" y2="1419.46" gradientUnits="userSpaceOnUse">
<stop stop-color="#155ADA"/>
<stop offset="1" stop-color="#0B743B"/>
</linearGradient>
<linearGradient id="paint7_linear_45_289" x1="764.23" y1="1244.08" x2="1046.06" y2="1452.9" gradientUnits="userSpaceOnUse">
<stop stop-color="#155ADA"/>
<stop offset="1" stop-color="#0B743B"/>
</linearGradient>
<linearGradient id="paint8_linear_45_289" x1="759.069" y1="1276.66" x2="1041.74" y2="1486.09" gradientUnits="userSpaceOnUse">
<stop stop-color="#155ADA"/>
<stop offset="1" stop-color="#0B743B"/>
</linearGradient>
<linearGradient id="paint9_linear_45_289" x1="753.858" y1="1309.15" x2="1037.41" y2="1519.22" gradientUnits="userSpaceOnUse">
<stop stop-color="#155ADA"/>
<stop offset="1" stop-color="#0B743B"/>
</linearGradient>
<linearGradient id="paint10_linear_45_289" x1="748.571" y1="1341.28" x2="1033.23" y2="1552.14" gradientUnits="userSpaceOnUse">
<stop stop-color="#155ADA"/>
<stop offset="1" stop-color="#0B743B"/>
</linearGradient>
<linearGradient id="paint11_linear_45_289" x1="743.146" y1="1373.19" x2="1029.08" y2="1584.96" gradientUnits="userSpaceOnUse">
<stop stop-color="#155ADA"/>
<stop offset="1" stop-color="#0B743B"/>
</linearGradient>
<linearGradient id="paint12_linear_45_289" x1="737.681" y1="1404.7" x2="1025.08" y2="1617.52" gradientUnits="userSpaceOnUse">
<stop stop-color="#155ADA"/>
<stop offset="1" stop-color="#0B743B"/>
</linearGradient>
<linearGradient id="paint13_linear_45_289" x1="732.111" y1="1435.87" x2="1021.17" y2="1649.89" gradientUnits="userSpaceOnUse">
<stop stop-color="#155ADA"/>
<stop offset="1" stop-color="#0B743B"/>
</linearGradient>
<linearGradient id="paint14_linear_45_289" x1="726.333" y1="1466.65" x2="1017.32" y2="1682.05" gradientUnits="userSpaceOnUse">
<stop stop-color="#155ADA"/>
<stop offset="1" stop-color="#0B743B"/>
</linearGradient>
<linearGradient id="paint15_linear_45_289" x1="720.437" y1="1496.94" x2="1013.65" y2="1713.94" gradientUnits="userSpaceOnUse">
<stop stop-color="#155ADA"/>
<stop offset="1" stop-color="#0B743B"/>
</linearGradient>
<linearGradient id="paint16_linear_45_289" x1="714.383" y1="1526.68" x2="1010.15" y2="1745.5" gradientUnits="userSpaceOnUse">
<stop stop-color="#155ADA"/>
<stop offset="1" stop-color="#0B743B"/>
</linearGradient>
<linearGradient id="paint17_linear_45_289" x1="704.198" y1="1543.2" x2="1010.44" y2="1769.5" gradientUnits="userSpaceOnUse">
<stop stop-color="#155ADA"/>
<stop offset="1" stop-color="#0B743B"/>
</linearGradient>
<linearGradient id="paint18_linear_45_289" x1="693.658" y1="1558.49" x2="1011.11" y2="1792.78" gradientUnits="userSpaceOnUse">
<stop stop-color="#155ADA"/>
<stop offset="1" stop-color="#0B743B"/>
</linearGradient>
<linearGradient id="paint19_linear_45_289" x1="682.851" y1="1572.92" x2="1012.05" y2="1815.58" gradientUnits="userSpaceOnUse">
<stop stop-color="#155ADA"/>
<stop offset="1" stop-color="#0B743B"/>
</linearGradient>
<linearGradient id="paint20_linear_45_289" x1="671.93" y1="1586.9" x2="1013.14" y2="1838.09" gradientUnits="userSpaceOnUse">
<stop stop-color="#155ADA"/>
<stop offset="1" stop-color="#0B743B"/>
</linearGradient>
<linearGradient id="paint21_linear_45_289" x1="660.853" y1="1600.47" x2="1014.38" y2="1860.41" gradientUnits="userSpaceOnUse">
<stop stop-color="#155ADA"/>
<stop offset="1" stop-color="#0B743B"/>
</linearGradient>
</defs>
</svg>
